{"title":"Extraction 2013 WEBrip XVID AC3 ACAB","uid":10020106,"size":1604818297,"categoryP":"video","categoryS":"movies","magnet":"?xt=urn:btih:124e0d3032cfa594982f03cb33aa756bbbab8f33&amp;dn=Extraction+2013+WEBrip+XVID+AC3+ACAB&amp;tr=udp%3A%2F%2Ftracker.openbittorrent.com%3A80&amp;tr=udp%3A%2F%2Fopen.demonii.com%3A1337&amp;tr=udp%3A%2F%2Ftracker.coppersurfer.tk%3A6969&amp;tr=udp%3A%2F%2Fexodus.desync.com%3A6969","seeders":2,"leechers":0,"uploader":"xxxlavalxxx","files":-1,"time":1398192680,"description":" &lt;a href=&quot;\nhttp://www.imdb.com/title/tt2823574/&quot; rel=&quot;nofollow&quot; target=&quot;_NEW&quot;&gt;\nhttp://www.imdb.com/title/tt2823574/&lt;/a&gt;\n\n\nMercy Callo is a U.S. Black Ops soldier who finds himself the only survivor of a botched prisoner extraction mission. Forced to fight his way out of a maximum-security Chechen prison, he must keep his target alive in order to save thousands of lives.\n\nDirector: Tony Giglio\nWriter: Tony Giglio\nStars: Jon Foo, Falk Hentschel, Vinnie Jones\nGenres: Action\nCountry: USA\nLanguage: English\n\n\n\nFormat                                   : AVI\nFormat/Info                              : Audio Video Interleave\nFile size                                : 1.47 GiB\nDuration                                 : 1h 46mn\nOverall bit rate                         : 1 989 Kbps\nWriting library                          : VirtualDub build 30091/release\n\nVideo\nID                                       : 0\nFormat                                   : MPEG-4 Visual\nFormat profile                           : Advanced Simple@L5\nFormat settings, BVOP                    : 2\nFormat settings, QPel                    : No\nFormat settings, GMC                     : No warppoints\nFormat settings, Matrix                  : Default (H.263)\nMuxing mode                              : Packed bitstream\nCodec ID                                 : XVID\nCodec ID/Hint                            : XviD\nDuration                                 : 1h 46mn\nBit rate                                 : 1 595 Kbps\nWidth                                    : 720 pixels\nHeight                                   : 400 pixels\nDisplay aspect ratio                     : 16:9\nFrame rate                               : 23.976 fps\nColor space                              : YUV\nChroma subsampling                       : 4:2:0\nBit depth                                : 8 bits\nScan type                                : Progressive\nCompression mode                         : Lossy\nBits/(Pixel*Frame)                       : 0.231\nStream size                              : 1.18 GiB (80%)\nWriting library                          : XviD 1.2.1 (UTC 2008-12-04)\n\nAudio\nID                                       : 1\nFormat                                   : AC-3\nFormat/Info                              : Audio Coding 3\nMode extension                           : CM (complete main)\nFormat settings, Endianness              : Big\nCodec ID                                 : 2000\nDuration                                 : 1h 46mn\nBit rate mode                            : Constant\nBit rate                                 : 384 Kbps\nChannel(s)                               : 6 channels\nChannel positions                        : Front: L C R, Side: L R, LFE\nSampling rate                            : 48.0 KHz\nBit depth                                : 16 bits\nCompression mode                         : Lossy\nStream size                              : 291 MiB (19%)\n\n\nscreens\n &lt;a href=&quot;\nhttp://i.imgur.com/xVFDvTN.png&quot; rel=&quot;nofollow&quot; target=&quot;_NEW&quot;&gt;\nhttp://i.imgur.com/xVFDvTN.png&lt;/a&gt; &lt;a href=&quot;\nhttp://i.imgur.com/wXRyfxu.png&quot; rel=&quot;nofollow&quot; target=&quot;_NEW&quot;&gt;\nhttp://i.imgur.com/wXRyfxu.png&lt;/a&gt; &lt;a href=&quot;\nhttp://i.imgur.com/nioItBP.png&quot; rel=&quot;nofollow&quot; target=&quot;_NEW&quot;&gt;\nhttp://i.imgur.com/nioItBP.png&lt;/a&gt; &lt;a href=&quot;\nhttp://i.imgur.com/PdiwexX.png&quot; rel=&quot;nofollow&quot; target=&quot;_NEW&quot;&gt;\nhttp://i.imgur.com/PdiwexX.png&lt;/a&gt;","torrent":{"xt":"urn:btih:124e0d3032cfa594982f03cb33aa756bbbab8f33","amp;dn":"Extraction+2013+WEBrip+XVID+AC3+ACAB","amp;tr":["udp%3A%2F%2Ftracker.openbittorrent.com%3A80","udp%3A%2F%2Fopen.demonii.com%3A1337","udp%3A%2F%2Ftracker.coppersurfer.tk%3A6969","udp%3A%2F%2Fexodus.desync.com%3A6969"],"infoHash":"124e0d3032cfa594982f03cb33aa756bbbab8f33","infoHashBuffer":{"type":"Buffer","data":[18,78,13,48,50,207,165,148,152,47,3,203,51,170,117,107,187,171,143,51]},"announce":[],"urlList":[]}}